<svg width="331" height="126" viewBox="0 0 331 126" fill="none" xmlns="http://www.w3.org/2000/svg">
<g filter="url(#filter0_d_183_4045)">
<path d="M82.75 118.709V2C82.75 2 56.7707 17.2835 46.9671 25.6839C41.8789 30.0438 30.3175 39.8824 20.0771 47.7476C10.5869 55.0366 1.45044 61.1073 1.45044 61.1073C1.45044 61.1073 10.1334 68.7992 17.5562 73.4548C20.4489 75.2692 31.2241 81.6138 43.0457 89.8508C48.7869 93.8511 57.8729 102.692 66.8545 109.283C74.7171 115.052 78.334 118.709 82.75 118.709Z" fill="#FFF5DC"/>
</g>
<path d="M82.1567 118.658C69.5581 113.348 57.7933 100.805 42.5432 89.6209C28.8707 79.594 11.5766 71.1787 1.93081 61.4551M1.93081 61.4551C0.17821 59.6883 3.51725 62.0592 1.93081 60.329C13.4464 53.631 30.7829 39.3451 36.9618 33.8316C43.1407 28.3181 65.8882 9.88426 82.1567 2L58.5795 17.5687C58.5795 17.5687 41.6191 29.9558 38.795 32.896C35.9708 35.8362 1.93081 61.4551 1.93081 61.4551Z" stroke="#476161" stroke-width="1.89258" stroke-miterlimit="10" stroke-linecap="round" stroke-linejoin="round"/>
<g filter="url(#filter1_d_183_4045)">
<path fill-rule="evenodd" clip-rule="evenodd" d="M244.25 2.26284V11.7257H82.7497V2.26284C86.7842 2.26284 90.3579 2.12423 93.8035 1.99058C98.7113 1.80023 103.359 1.61996 108.709 1.86462C110.135 1.92984 112.273 2.11854 115.119 2.36975C124.512 3.1987 141.617 4.70835 166.306 4.70835C170.002 4.70835 173.871 4.75014 177.828 4.79287C186.018 4.8813 194.582 4.97378 202.755 4.70835C208.821 4.70835 217.268 4.03862 225.321 3.40012C232.657 2.81852 239.665 2.26284 244.25 2.26284ZM82.7497 11.7265H244.25V110.141L244.25 118.71C244.25 118.71 236.156 119.875 225.582 120.002C223.399 120.028 220.98 119.859 218.497 119.686L218.497 119.686L218.497 119.686C216.216 119.527 213.882 119.365 211.625 119.345C208.362 119.318 203.933 119.481 199.646 119.638L199.645 119.638C196.079 119.769 192.611 119.897 189.996 119.908C184.011 119.934 180.22 119.713 177.255 119.541C175.417 119.434 173.895 119.345 172.365 119.345C169.088 119.345 164.366 119.453 159.049 119.574L159.048 119.574C152.201 119.73 144.368 119.908 137.37 119.908C132.696 119.908 127.86 119.727 121.954 119.505L121.954 119.505H121.954C112.688 119.157 100.789 118.71 82.7496 118.71C82.7494 115.556 82.7496 110.141 82.7496 110.141H82.7497V11.7265Z" fill="#FFF5DC"/>
</g>
<path d="M82.75 1.99971C95.7148 1.99971 105.253 1.41149 112.682 1.99972C120.668 2.63207 126.565 4.44407 142.05 4.44407C149.612 4.44407 160.028 4.54914 167.94 4.44408C175.869 4.33879 181.297 4.02381 191.327 4.44407C211.365 5.28368 230.884 1.99971 244.161 1.99971" stroke="#476161" stroke-width="1.89258" stroke-linecap="round" stroke-linejoin="round"/>
<path d="M243.959 118.71C235.403 118.71 229.043 119.949 223.445 119.845C218.286 119.75 213.789 118.546 208.51 119.162C194.386 120.811 182.101 119.236 163.612 119.236C154.954 119.236 143.175 120.095 136.49 119.845C123.97 119.378 114.868 118.514 102.956 118.411C97.0627 118.36 90.4816 118.71 82.4585 118.71" stroke="#476161" stroke-width="1.89258" stroke-linecap="round" stroke-linejoin="round"/>
<g filter="url(#filter2_d_183_4045)">
<path d="M244.25 2C244.25 2 273.595 2.79542 284.216 2.79542C292.911 2.79542 313.61 2.26243 320.835 2.06904C322.3 2.02982 323.332 2.79542 323.332 3.51822C323.155 9.73392 322.489 33.2469 322.3 40.3687C322.153 45.8959 326.664 67.5062 324.709 87.8614C322.753 108.217 323.4 107.195 323.414 117.141C323.414 118.137 322.799 119.726 320.741 119.133C318.684 118.54 301.044 118.402 285.761 118.402C265.266 118.402 244.25 118.862 244.25 118.862V2Z" fill="#FFF5DC"/>
</g>
<path d="M244.25 118.709C244.25 118.709 273.722 118.107 283.359 118.107C292.996 118.107 322.828 118.709 322.828 118.709M244.25 2C254.596 2 271.35 2.84271 282.469 2.84271C293.589 2.84271 311.232 2 322.604 2M322.604 2H323.741C323.741 7.90887 323.741 11.1736 323.741 20.8089C323.741 30.4442 321.203 31.1828 323.741 55.9775C326.279 80.7722 324.195 116.365 324.195 118.709H322.828M322.604 2C324.866 17.1209 320.491 40.2778 322.604 55.9775C325.094 74.4851 322.828 116.292 322.828 118.709" stroke="#476161" stroke-width="1.89258" stroke-miterlimit="10" stroke-linecap="round" stroke-linejoin="round"/>
<defs>
<filter id="filter0_d_183_4045" x="1.45044" y="2" width="86.3464" height="121.756" filterUnits="userSpaceOnUse" color-interpolation-filters="sRGB">
<feFlood flood-opacity="0" result="BackgroundImageFix"/>
<feColorMatrix in="SourceAlpha" type="matrix" values="0 0 0 0 0 0 0 0 0 0 0 0 0 0 0 0 0 0 127 0" result="hardAlpha"/>
<feOffset dx="5.04688" dy="5.04688"/>
<feColorMatrix type="matrix" values="0 0 0 0 0.694118 0 0 0 0 0.721569 0 0 0 0 0.741176 0 0 0 1 0"/>
<feBlend mode="multiply" in2="BackgroundImageFix" result="effect1_dropShadow_183_4045"/>
<feBlend mode="normal" in="SourceGraphic" in2="effect1_dropShadow_183_4045" result="shape"/>
</filter>
<filter id="filter1_d_183_4045" x="82.7495" y="1.74609" width="166.547" height="123.305" filterUnits="userSpaceOnUse" color-interpolation-filters="sRGB">
<feFlood flood-opacity="0" result="BackgroundImageFix"/>
<feColorMatrix in="SourceAlpha" type="matrix" values="0 0 0 0 0 0 0 0 0 0 0 0 0 0 0 0 0 0 127 0" result="hardAlpha"/>
<feOffset dx="5.04688" dy="5.04688"/>
<feColorMatrix type="matrix" values="0 0 0 0 0.694118 0 0 0 0 0.721569 0 0 0 0 0.741176 0 0 0 1 0"/>
<feBlend mode="multiply" in2="BackgroundImageFix" result="effect1_dropShadow_183_4045"/>
<feBlend mode="normal" in="SourceGraphic" in2="effect1_dropShadow_183_4045" result="shape"/>
</filter>
<filter id="filter2_d_183_4045" x="244.25" y="2" width="85.9978" height="122.309" filterUnits="userSpaceOnUse" color-interpolation-filters="sRGB">
<feFlood flood-opacity="0" result="BackgroundImageFix"/>
<feColorMatrix in="SourceAlpha" type="matrix" values="0 0 0 0 0 0 0 0 0 0 0 0 0 0 0 0 0 0 127 0" result="hardAlpha"/>
<feOffset dx="5.04688" dy="5.04688"/>
<feColorMatrix type="matrix" values="0 0 0 0 0.694118 0 0 0 0 0.721569 0 0 0 0 0.741176 0 0 0 1 0"/>
<feBlend mode="multiply" in2="BackgroundImageFix" result="effect1_dropShadow_183_4045"/>
<feBlend mode="normal" in="SourceGraphic" in2="effect1_dropShadow_183_4045" result="shape"/>
</filter>
</defs>
</svg>
