<svg width="776" height="401" viewBox="0 0 776 401" fill="none" xmlns="http://www.w3.org/2000/svg">
<path d="M17.5001 398C140.653 398 142.302 398.439 265.389 398.439C388.542 398.439 388.542 399 511.695 399C634.847 399 634.847 398.5 758 398.5M758 398.5C759.492 398.5 760.826 398.379 762.021 398.148M758 398.5C759.481 398.5 760.816 398.377 762.021 398.148M3 386C3 330.694 2 300.529 2 245.252C2 189.946 2 189.946 2 134.64C2 79.3337 2 74.3062 2 19M3 386H4M3 386C3 392 1.49955 398 18 398C2.99996 398 4 392.47 4 386M2 19C2.24946 36.7754 2.74837 77.7487 2.74837 79.3288C2.74837 81.3038 2.99782 126.73 2.74837 132.655C2.49891 138.58 2.49891 203.757 2.74837 219.557C2.94793 232.198 4.08315 345.841 4 386M2 19C2 7.19445 8.29031 2 17 2C140.153 2 143.451 2 266.539 2C389.691 2 389.691 2 512.844 2C635.996 2 634.347 2 757.5 2C766.5 2 773 7.5 773 20M773 380C772.634 380 772 380 772 380M773 380C773 369.987 773.82 327.794 773.995 276.599M773 380H772M773 380C773 386.707 772.2 396.212 762.021 398.148M772 380C772 345.168 772.774 311.316 772.774 276.599C772.774 268.009 772.366 231.5 772.774 201.434C772.877 193.77 773.015 107.273 773.015 96.3637C773.015 87.7924 773.027 49.5752 773.023 30.4254M772 380C772 388.784 770.837 396.445 762.021 398.148M773.023 30.4254C773.022 25.2023 773.019 21.3976 773.015 20C773.015 21.102 773.018 24.7025 773.023 30.4254ZM773.023 30.4254C773.044 53.6658 773.104 111.907 773.181 179.958M773.181 179.958C773.192 190.135 773.34 204.11 773.507 218.668M773.181 179.958L773.507 218.668M773.507 218.668C773.753 240.158 774.042 262.917 773.995 276.599M773.507 218.668L773.995 276.599M742.047 391.762C751.753 383.14 761.753 372.64 762.637 370.586M753.484 390.909C759.125 385.268 759.453 385.597 765.082 379.968M764.101 391.237C763.726 391.613 763.69 391.577 763.315 391.952" stroke="black" stroke-width="3" stroke-miterlimit="10" stroke-linecap="round" stroke-linejoin="round"/>
</svg>
